<svg width="1024" height="1024" xmlns="http://www.w3.org/2000/svg" p-id="9212" version="1.1" class="icon" t="1651553159726">

 <g>
  <title>Layer 1</title>
  <path id="svg_1" p-id="9213" fill="#007bff" d="m101.54,373.43c-20.87,0 -37.78,-16.92 -37.78,-37.78l0,-83.42c0,-103.91 84.54,-188.45 188.45,-188.45l83.42,0c20.87,0 37.78,16.92 37.78,37.78s-16.92,37.78 -37.78,37.78l-83.42,0c-62.25,0 -112.89,50.64 -112.89,112.89l0,83.42c0,20.87 -16.92,37.78 -37.78,37.78zm670.37,586.78l-83.87,0c-20.87,0 -37.78,-16.91 -37.78,-37.78s16.92,-37.78 37.78,-37.78l83.87,0c62.25,0 112.89,-50.64 112.89,-112.89l0,-83.37c0,-20.87 16.91,-37.78 37.78,-37.78s37.78,16.92 37.78,37.78l0,83.37c-0.01,103.91 -84.54,188.45 -188.45,188.45zm-436.44,0l-83.37,0c-103.91,0 -188.45,-84.54 -188.45,-188.45l0,-83.37c0,-20.87 16.92,-37.78 37.78,-37.78s37.78,16.92 37.78,37.78l0,83.37c0,62.25 50.64,112.89 112.89,112.89l83.37,0c20.87,0 37.78,16.91 37.78,37.78s-16.92,37.78 -37.78,37.78zm587.1,-586.6c-20.87,0 -37.78,-16.92 -37.78,-37.78l0,-83.37c0,-62.25 -50.64,-112.89 -112.89,-112.89l-83.87,0c-20.87,0 -37.78,-16.92 -37.78,-37.78s16.92,-37.78 37.78,-37.78l83.87,0c103.91,0 188.45,84.54 188.45,188.45l0,83.37c0,20.86 -16.91,37.78 -37.78,37.78z"/>
  <g stroke="null">

   <path stroke="null" p-id="8272" fill="#007bff" d="m473.04227,242.68555a55.25625,55.24897 0 1 0 110.51249,0a55.25625,55.24897 0 1 0 -110.51249,0z"/>
   <path stroke="null" p-id="8273" fill="#007bff" d="m348.35109,556.17842c9.65631,-62.65198 20.24817,-104.62624 31.77677,-125.92644c37.67273,-69.59996 76.71054,-100.7676 88.55949,-102.24068c23.86291,-2.96679 52.26034,-3.56014 66.50213,0c16.52057,4.12923 27.85139,12.79662 33.99124,26.00094c5.70909,57.34938 14.35464,93.1389 25.93542,107.36855c32.06678,39.39941 80.16997,52.57461 93.98464,52.57461c0,13.81224 -6.98924,36.52484 -6.98924,36.52484c-20.48963,0 -90.57981,0 -128.50008,-60.99567c-2.13196,-3.4291 -5.03565,16.9028 -8.70743,60.99567c49.13096,47.68821 80.87982,86.38263 95.24416,116.08083c14.36434,29.6982 21.53074,86.36564 21.49919,170.00233l-48.24881,0c-3.36357,-45.69337 -9.45731,-80.95384 -18.28244,-105.78141c-8.82513,-24.82636 -34.77147,-57.30327 -77.84023,-97.4283c-16.45747,39.04752 -34.87703,75.87936 -55.25625,110.49793c-20.38043,34.61858 -46.58158,65.52169 -78.60225,92.71178l-48.51818,0c40.23788,-57.55202 68.79668,-102.26859 85.67764,-134.1485c16.87853,-31.87991 28.88036,-63.61057 36.00186,-95.19077l0,-193.60557c-12.7044,3.76157 -24.70502,17.15397 -36.00186,40.17599c-7.02807,14.32187 -19.41455,48.44902 -37.15946,102.38386l-35.06632,0z"/>
  </g>
 </g>
</svg>